<?xml version="1.0" encoding="utf-8" ?><svg xmlns="http://www.w3.org/2000/svg" xmlns:xlink="http://www.w3.org/1999/xlink" viewBox="418 224 434 387"><path fill="#1B2D6B" d="M429.445 234.977C462.292 234.536 496.216 234.964 529.145 234.96L730.103 234.985L730.407 368.048C730.368 392.115 732.611 426.862 725.902 449.589C720.15 469.074 702.39 485.843 683.914 494.278C674.343 498.581 668.377 499.688 658.056 501.708L657.861 298.211L499.993 298.148L500.04 336.482C476.488 336.61 452.936 336.599 429.385 336.449L429.445 234.977Z"/><path fill="#1B2D6B" d="M839.119 235.349L840.951 235.453L841.624 236.504L841.541 360.124L841.654 415.742C841.663 425.673 842.015 440.552 840.975 450.086C836.969 486.81 820.707 524.107 794.77 550.557C767.683 577.864 732.018 595.007 693.777 599.101C682.74 600.349 672.178 600.257 661.094 600.346C660.101 600.361 659.459 600.247 658.483 600.13C657.46 598.163 657.69 544.449 657.67 537.543C690.468 536.262 717.791 525.594 741.405 502.53C779.427 465.392 772.358 412.456 772.263 364.316L772.056 235.385C794.177 235.69 816.948 235.386 839.119 235.349Z"/><path fill="#1B2D6B" d="M549.087 335.556L619.49 335.48L619.66 600.464C605.102 600.311 590.542 600.283 575.984 600.38C569.951 600.401 556.771 600.782 551.187 600.12C521.592 596.61 493.292 581.791 471.552 561.927C471.075 561.484 470.604 561.036 470.139 560.581C441.912 533.109 428.57 503.664 428.228 464.416L498.084 464.206C498.673 471.087 500.151 477.863 502.481 484.364C511.014 507.822 527.655 520.85 549.457 531.005L549.087 335.556Z"/></svg>